<mxfile host="Electron" agent="Mozilla/5.0 (Windows NT 10.0; Win64; x64) AppleWebKit/537.36 (KHTML, like Gecko) draw.io/27.0.9 Chrome/134.0.6998.205 Electron/35.4.0 Safari/537.36" version="27.0.9">
  <diagram id="0U85dfrfak1zZH0-9EFQ" name="Page-2">
    <mxGraphModel dx="1011" dy="549" grid="1" gridSize="10" guides="1" tooltips="1" connect="1" arrows="1" fold="1" page="1" pageScale="1" pageWidth="850" pageHeight="1100" math="0" shadow="0">
      <root>
        <mxCell id="0" />
        <mxCell id="1" style="" parent="0" />
        <mxCell id="kCHVRqanEo-mkhX_574u-2" value="&lt;h1&gt;&lt;font style=&quot;font-size: 37px;&quot;&gt;Project 1: UTC-APP&lt;/font&gt;&lt;/h1&gt;" style="rounded=0;whiteSpace=wrap;html=1;fillColor=none;container=1;align=center;verticalAlign=top;" parent="1" vertex="1" collapsed="1">
          <mxGeometry x="200" y="80" width="380" height="90" as="geometry">
            <mxRectangle x="200" y="80" width="1440" height="1150" as="alternateBounds" />
          </mxGeometry>
        </mxCell>
        <mxCell id="HjElABhOm3GR3gQ3NGnv-4" value="AWS Cloud" style="points=[[0,0],[0.25,0],[0.5,0],[0.75,0],[1,0],[1,0.25],[1,0.5],[1,0.75],[1,1],[0.75,1],[0.5,1],[0.25,1],[0,1],[0,0.75],[0,0.5],[0,0.25]];outlineConnect=0;gradientColor=none;html=1;whiteSpace=wrap;fontSize=12;fontStyle=0;container=1;pointerEvents=0;collapsible=0;recursiveResize=0;shape=mxgraph.aws4.group;grIcon=mxgraph.aws4.group_aws_cloud_alt;strokeColor=#6788B1;fillColor=none;verticalAlign=top;align=left;spacingLeft=30;fontColor=#7C93D5;dashed=0;movable=1;resizable=1;rotatable=1;deletable=1;editable=1;locked=0;connectable=1;" parent="kCHVRqanEo-mkhX_574u-2" vertex="1">
          <mxGeometry x="120" y="235.75" width="1200" height="840" as="geometry" />
        </mxCell>
        <mxCell id="ao3atlO_gpHJTrCSkDzS-1" value="us-east-1" style="points=[[0,0],[0.25,0],[0.5,0],[0.75,0],[1,0],[1,0.25],[1,0.5],[1,0.75],[1,1],[0.75,1],[0.5,1],[0.25,1],[0,1],[0,0.75],[0,0.5],[0,0.25]];outlineConnect=0;gradientColor=none;html=1;whiteSpace=wrap;fontSize=12;fontStyle=0;container=1;pointerEvents=0;collapsible=0;recursiveResize=0;shape=mxgraph.aws4.group;grIcon=mxgraph.aws4.group_region;strokeColor=#00A4A6;fillColor=none;verticalAlign=top;align=left;spacingLeft=30;fontColor=#147EBA;dashed=1;" parent="HjElABhOm3GR3gQ3NGnv-4" vertex="1">
          <mxGeometry x="80" y="80" width="1080" height="720" as="geometry" />
        </mxCell>
        <mxCell id="6uiXnNB2Hfb9xtFHbngv-2" value="" style="group" parent="ao3atlO_gpHJTrCSkDzS-1" vertex="1" connectable="0">
          <mxGeometry x="80" y="50" width="960" height="630" as="geometry" />
        </mxCell>
        <mxCell id="6uiXnNB2Hfb9xtFHbngv-1" value="" style="group" parent="6uiXnNB2Hfb9xtFHbngv-2" vertex="1" connectable="0">
          <mxGeometry y="30" width="960" height="600" as="geometry" />
        </mxCell>
        <mxCell id="5CiNweM-sX3QMw82ZduV-23" value="Private subnet" style="points=[[0,0],[0.25,0],[0.5,0],[0.75,0],[1,0],[1,0.25],[1,0.5],[1,0.75],[1,1],[0.75,1],[0.5,1],[0.25,1],[0,1],[0,0.75],[0,0.5],[0,0.25]];outlineConnect=0;html=1;whiteSpace=wrap;fontSize=12;fontStyle=0;container=1;pointerEvents=0;collapsible=0;recursiveResize=0;shape=mxgraph.aws4.group;grIcon=mxgraph.aws4.group_security_group;grStroke=0;strokeColor=#432D57;fillColor=#76608a;verticalAlign=top;align=left;spacingLeft=30;dashed=0;fontColor=#ffffff;" parent="6uiXnNB2Hfb9xtFHbngv-1" vertex="1">
          <mxGeometry x="400" y="230" width="160" height="180" as="geometry" />
        </mxCell>
        <mxCell id="5CiNweM-sX3QMw82ZduV-14" value="Private subnet" style="points=[[0,0],[0.25,0],[0.5,0],[0.75,0],[1,0],[1,0.25],[1,0.5],[1,0.75],[1,1],[0.75,1],[0.5,1],[0.25,1],[0,1],[0,0.75],[0,0.5],[0,0.25]];outlineConnect=0;html=1;whiteSpace=wrap;fontSize=12;fontStyle=0;container=1;pointerEvents=0;collapsible=0;recursiveResize=0;shape=mxgraph.aws4.group;grIcon=mxgraph.aws4.group_security_group;grStroke=0;strokeColor=#432D57;fillColor=#76608a;verticalAlign=top;align=left;spacingLeft=30;dashed=0;fontColor=#ffffff;" parent="6uiXnNB2Hfb9xtFHbngv-1" vertex="1">
          <mxGeometry x="80" y="230" width="160" height="180" as="geometry" />
        </mxCell>
        <mxCell id="5CiNweM-sX3QMw82ZduV-19" value="us-east-1a" style="fillColor=none;strokeColor=#147EBA;dashed=1;verticalAlign=top;fontStyle=0;fontColor=#147EBA;whiteSpace=wrap;html=1;spacingTop=0;" parent="6uiXnNB2Hfb9xtFHbngv-1" vertex="1">
          <mxGeometry x="40" y="80" width="240" height="480" as="geometry" />
        </mxCell>
        <mxCell id="5CiNweM-sX3QMw82ZduV-25" value="us-east-1b" style="fillColor=none;strokeColor=#147EBA;dashed=1;verticalAlign=top;fontStyle=0;fontColor=#147EBA;whiteSpace=wrap;html=1;container=0;movable=1;resizable=1;rotatable=1;deletable=1;editable=1;locked=0;connectable=1;spacingTop=0;" parent="6uiXnNB2Hfb9xtFHbngv-1" vertex="1">
          <mxGeometry x="360" y="80" width="240" height="480" as="geometry">
            <mxRectangle x="440" y="10" width="100" height="30" as="alternateBounds" />
          </mxGeometry>
        </mxCell>
        <mxCell id="5CiNweM-sX3QMw82ZduV-2" value="Public subnet" style="points=[[0,0],[0.25,0],[0.5,0],[0.75,0],[1,0],[1,0.25],[1,0.5],[1,0.75],[1,1],[0.75,1],[0.5,1],[0.25,1],[0,1],[0,0.75],[0,0.5],[0,0.25]];outlineConnect=0;html=1;whiteSpace=wrap;fontSize=12;fontStyle=0;container=1;pointerEvents=0;collapsible=0;recursiveResize=0;shape=mxgraph.aws4.group;grIcon=mxgraph.aws4.group_security_group;grStroke=0;strokeColor=#314354;fillColor=#647687;verticalAlign=top;align=left;spacingLeft=30;dashed=0;fontColor=#ffffff;" parent="6uiXnNB2Hfb9xtFHbngv-1" vertex="1">
          <mxGeometry x="80" y="110" width="160" height="100" as="geometry" />
        </mxCell>
        <UserObject label="" tooltip="NAT Gateway" id="5CiNweM-sX3QMw82ZduV-5">
          <mxCell style="sketch=0;outlineConnect=0;fontColor=#232F3E;gradientColor=none;fillColor=#F58536;strokeColor=none;dashed=0;verticalLabelPosition=bottom;verticalAlign=top;align=center;html=1;fontSize=12;fontStyle=0;aspect=fixed;pointerEvents=1;shape=mxgraph.aws3.vpc_nat_gateway;" parent="5CiNweM-sX3QMw82ZduV-2" vertex="1">
            <mxGeometry x="60.5" y="41" width="39" height="39" as="geometry" />
          </mxCell>
        </UserObject>
        <mxCell id="_eAZpja_ApV_2CZ94UeD-1" value="utc-target-group" style="outlineConnect=0;gradientColor=none;html=1;whiteSpace=wrap;fontSize=12;fontStyle=0;strokeColor=#66FFFF;fillColor=none;verticalAlign=top;align=center;fontColor=#66FFFF;dashed=1;spacingTop=-5;" parent="6uiXnNB2Hfb9xtFHbngv-1" vertex="1">
          <mxGeometry x="110" y="260" width="420" height="140" as="geometry" />
        </mxCell>
        <UserObject label="UTC-VPC 10.10.0.0/16" tags="utc-vpc terraform dev" id="TDfjeNT3tWewx6dYdx5n-3">
          <mxCell style="points=[[0,0],[0.25,0],[0.5,0],[0.75,0],[1,0],[1,0.25],[1,0.5],[1,0.75],[1,1],[0.75,1],[0.5,1],[0.25,1],[0,1],[0,0.75],[0,0.5],[0,0.25]];outlineConnect=0;gradientColor=none;html=1;whiteSpace=wrap;fontSize=12;fontStyle=0;container=0;pointerEvents=0;collapsible=0;recursiveResize=0;shape=mxgraph.aws4.group;grIcon=mxgraph.aws4.group_vpc2;strokeColor=#8C4FFF;fillColor=none;verticalAlign=top;align=left;spacingLeft=30;fontColor=light-dark(#A680B8,#8C4FFF);dashed=0;movable=1;resizable=1;rotatable=1;deletable=1;editable=1;locked=0;connectable=1;" parent="6uiXnNB2Hfb9xtFHbngv-1" vertex="1">
            <mxGeometry width="960" height="600" as="geometry" />
          </mxCell>
        </UserObject>
        <mxCell id="5CiNweM-sX3QMw82ZduV-18" value="Private subnet" style="points=[[0,0],[0.25,0],[0.5,0],[0.75,0],[1,0],[1,0.25],[1,0.5],[1,0.75],[1,1],[0.75,1],[0.5,1],[0.25,1],[0,1],[0,0.75],[0,0.5],[0,0.25]];outlineConnect=0;html=1;whiteSpace=wrap;fontSize=12;fontStyle=0;container=1;pointerEvents=0;collapsible=0;recursiveResize=0;shape=mxgraph.aws4.group;grIcon=mxgraph.aws4.group_security_group;grStroke=0;strokeColor=#432D57;fillColor=#76608a;verticalAlign=top;align=left;spacingLeft=30;dashed=0;fontColor=#ffffff;" parent="6uiXnNB2Hfb9xtFHbngv-1" vertex="1">
          <mxGeometry x="80" y="430" width="160" height="100" as="geometry" />
        </mxCell>
        <object label="Database-SG" tags="" id="TDfjeNT3tWewx6dYdx5n-32">
          <mxCell style="fontStyle=0;verticalAlign=top;align=center;spacingTop=-2;fillColor=none;rounded=0;whiteSpace=wrap;html=1;strokeColor=#0000FF;strokeWidth=1;container=1;collapsible=0;expand=0;recursiveResize=0;movable=1;resizable=1;rotatable=1;deletable=1;editable=1;locked=0;connectable=1;shadow=0;fontColor=#0000FF;" parent="5CiNweM-sX3QMw82ZduV-18" vertex="1">
            <mxGeometry x="29.995000000000005" y="28.005000000000006" width="110.01" height="63.75" as="geometry" />
          </mxCell>
        </object>
        <UserObject label="" tooltip="Primary RDS DB Instance" id="9mONx7Qn97t1CiRnEvUv-23">
          <mxCell style="aspect=fixed;html=1;align=center;fontSize=12;image=img/lib/azure2/databases/Azure_Database_MySQL_Server.svg;container=0;sketch=0;points=[[0,0,0],[0.25,0,0],[0.5,0,0],[0.75,0,0],[1,0,0],[0,1,0],[0.25,1,0],[0.5,1,0],[0.75,1,0],[1,1,0],[0,0.25,0],[0,0.5,0],[0,0.75,0],[1,0.25,0],[1,0.5,0],[1,0.75,0]];outlineConnect=0;fontColor=#232F3E;fillColor=#C925D1;strokeColor=#ffffff;dashed=0;verticalLabelPosition=bottom;verticalAlign=top;fontStyle=0;shape=mxgraph.aws4.resourceIcon;resIcon=mxgraph.aws4.rds;" parent="TDfjeNT3tWewx6dYdx5n-32" vertex="1">
            <mxGeometry x="43.76" y="16.88" width="32.34" height="43.13" as="geometry" />
          </mxCell>
        </UserObject>
        <mxCell id="5CiNweM-sX3QMw82ZduV-20" value="Public subnet" style="points=[[0,0],[0.25,0],[0.5,0],[0.75,0],[1,0],[1,0.25],[1,0.5],[1,0.75],[1,1],[0.75,1],[0.5,1],[0.25,1],[0,1],[0,0.75],[0,0.5],[0,0.25]];outlineConnect=0;html=1;whiteSpace=wrap;fontSize=12;fontStyle=0;container=1;pointerEvents=0;collapsible=0;recursiveResize=0;shape=mxgraph.aws4.group;grIcon=mxgraph.aws4.group_security_group;grStroke=0;strokeColor=#314354;fillColor=#647687;verticalAlign=top;align=left;spacingLeft=30;dashed=0;fontColor=#ffffff;" parent="6uiXnNB2Hfb9xtFHbngv-1" vertex="1">
          <mxGeometry x="400" y="110" width="160" height="100" as="geometry" />
        </mxCell>
        <UserObject label="" tooltip="NAT Gateway" id="5CiNweM-sX3QMw82ZduV-21">
          <mxCell style="sketch=0;outlineConnect=0;fontColor=#232F3E;gradientColor=none;fillColor=#F58536;strokeColor=none;dashed=0;verticalLabelPosition=bottom;verticalAlign=top;align=center;html=1;fontSize=12;fontStyle=0;aspect=fixed;pointerEvents=1;shape=mxgraph.aws3.vpc_nat_gateway;" parent="5CiNweM-sX3QMw82ZduV-20" vertex="1">
            <mxGeometry x="60.5" y="41" width="39" height="39" as="geometry" />
          </mxCell>
        </UserObject>
        <mxCell id="5CiNweM-sX3QMw82ZduV-24" value="Private subnet" style="points=[[0,0],[0.25,0],[0.5,0],[0.75,0],[1,0],[1,0.25],[1,0.5],[1,0.75],[1,1],[0.75,1],[0.5,1],[0.25,1],[0,1],[0,0.75],[0,0.5],[0,0.25]];outlineConnect=0;html=1;whiteSpace=wrap;fontSize=12;fontStyle=0;container=1;pointerEvents=0;collapsible=0;recursiveResize=0;shape=mxgraph.aws4.group;grIcon=mxgraph.aws4.group_security_group;grStroke=0;strokeColor=#432D57;fillColor=#76608a;verticalAlign=top;align=left;spacingLeft=30;dashed=0;fontColor=#ffffff;" parent="6uiXnNB2Hfb9xtFHbngv-1" vertex="1">
          <mxGeometry x="400" y="430" width="160" height="100" as="geometry" />
        </mxCell>
        <UserObject label="" tooltip="Standby RDS DB Instance" id="owAeYgM3tqPIYLvSeJij-3">
          <mxCell style="aspect=fixed;html=1;align=center;fontSize=12;image=img/lib/azure2/databases/Azure_Database_MySQL_Server.svg;container=0;sketch=0;outlineConnect=0;fontColor=#232F3E;fillColor=#2E73B8;strokeColor=#ffffff;dashed=0;verticalLabelPosition=bottom;verticalAlign=top;fontStyle=0;shape=mxgraph.aws3.rds_db_instance_standby_multi_az;resIcon=mxgraph.aws4.rds;gradientColor=none;" parent="5CiNweM-sX3QMw82ZduV-24" vertex="1">
            <mxGeometry x="67.15499999999997" y="37.995000000000005" width="32.34" height="43.13" as="geometry" />
          </mxCell>
        </UserObject>
        <mxCell id="TDfjeNT3tWewx6dYdx5n-30" value="App-server-SG" style="fontStyle=0;verticalAlign=top;align=center;spacingTop=-2;fillColor=none;rounded=0;whiteSpace=wrap;html=1;strokeColor=light-dark(#000000,#DD3522);strokeWidth=1;container=1;collapsible=0;expand=0;recursiveResize=0;fontColor=#DD3522;" parent="6uiXnNB2Hfb9xtFHbngv-1" vertex="1">
          <mxGeometry x="150" y="330" width="340" height="50" as="geometry" />
        </mxCell>
        <UserObject label="" tooltip="EC2" id="zvB8l6THBs-L_ArTR7B3-3">
          <mxCell style="sketch=0;points=[[0,0,0],[0.25,0,0],[0.5,0,0],[0.75,0,0],[1,0,0],[0,1,0],[0.25,1,0],[0.5,1,0],[0.75,1,0],[1,1,0],[0,0.25,0],[0,0.5,0],[0,0.75,0],[1,0.25,0],[1,0.5,0],[1,0.75,0]];outlineConnect=0;fontColor=#232F3E;fillColor=#ED7100;strokeColor=#ffffff;dashed=0;verticalLabelPosition=bottom;verticalAlign=top;align=center;html=1;fontSize=12;fontStyle=0;aspect=fixed;shape=mxgraph.aws4.resourceIcon;resIcon=mxgraph.aws4.ec2;" parent="TDfjeNT3tWewx6dYdx5n-30" vertex="1">
            <mxGeometry x="290" y="13" width="30" height="30" as="geometry" />
          </mxCell>
        </UserObject>
        <UserObject label="EBS" tooltip="EBS Volume" id="owAeYgM3tqPIYLvSeJij-19">
          <mxCell style="outlineConnect=0;dashed=0;verticalLabelPosition=middle;verticalAlign=middle;align=center;html=1;shape=mxgraph.aws3.volume;fillColor=#E05243;gradientColor=none;fontColor=light-dark(#000000,#7E0707);labelBorderColor=none;labelPosition=center;horizontal=0;fontSize=9;spacingBottom=0;spacingTop=0;spacingRight=11;" parent="TDfjeNT3tWewx6dYdx5n-30" vertex="1">
            <mxGeometry x="70" y="8" width="20" height="37" as="geometry" />
          </mxCell>
        </UserObject>
        <UserObject label="EBS" tooltip="EBS Volume" id="owAeYgM3tqPIYLvSeJij-21">
          <mxCell style="outlineConnect=0;dashed=0;verticalLabelPosition=middle;verticalAlign=middle;align=center;html=1;shape=mxgraph.aws3.volume;fillColor=#E05243;gradientColor=none;fontColor=light-dark(#000000,#7E0707);labelBorderColor=none;labelPosition=center;horizontal=0;fontSize=9;spacingBottom=0;spacingTop=0;spacingRight=11;" parent="TDfjeNT3tWewx6dYdx5n-30" vertex="1">
            <mxGeometry x="250" y="8" width="20" height="37" as="geometry" />
          </mxCell>
        </UserObject>
        <mxCell id="owAeYgM3tqPIYLvSeJij-24" style="edgeStyle=orthogonalEdgeStyle;rounded=0;orthogonalLoop=1;jettySize=auto;html=1;startArrow=oval;startFill=1;endArrow=oval;endFill=1;strokeColor=#B8B8B8;" parent="TDfjeNT3tWewx6dYdx5n-30" source="zvB8l6THBs-L_ArTR7B3-3" target="owAeYgM3tqPIYLvSeJij-21" edge="1">
          <mxGeometry relative="1" as="geometry" />
        </mxCell>
        <UserObject label="" tooltip="EC2" id="zvB8l6THBs-L_ArTR7B3-2">
          <mxCell style="sketch=0;points=[[0,0,0],[0.25,0,0],[0.5,0,0],[0.75,0,0],[1,0,0],[0,1,0],[0.25,1,0],[0.5,1,0],[0.75,1,0],[1,1,0],[0,0.25,0],[0,0.5,0],[0,0.75,0],[1,0.25,0],[1,0.5,0],[1,0.75,0]];outlineConnect=0;fontColor=#232F3E;fillColor=#ED7100;strokeColor=#ffffff;dashed=0;verticalLabelPosition=bottom;verticalAlign=top;align=center;html=1;fontSize=12;fontStyle=0;aspect=fixed;shape=mxgraph.aws4.resourceIcon;resIcon=mxgraph.aws4.ec2;" parent="TDfjeNT3tWewx6dYdx5n-30" vertex="1">
            <mxGeometry x="10" y="14.5" width="27" height="27" as="geometry" />
          </mxCell>
        </UserObject>
        <mxCell id="owAeYgM3tqPIYLvSeJij-22" style="edgeStyle=orthogonalEdgeStyle;rounded=0;orthogonalLoop=1;jettySize=auto;html=1;endArrow=oval;endFill=1;startArrow=oval;startFill=1;strokeColor=#B8B8B8;" parent="TDfjeNT3tWewx6dYdx5n-30" source="zvB8l6THBs-L_ArTR7B3-2" edge="1">
          <mxGeometry relative="1" as="geometry">
            <mxPoint x="70" y="28" as="targetPoint" />
            <Array as="points">
              <mxPoint x="50" y="28" />
              <mxPoint x="50" y="28" />
            </Array>
          </mxGeometry>
        </mxCell>
        <mxCell id="zvB8l6THBs-L_ArTR7B3-4" value="Auto Scaling group" style="points=[[0,0],[0.25,0],[0.5,0],[0.75,0],[1,0],[1,0.25],[1,0.5],[1,0.75],[1,1],[0.75,1],[0.5,1],[0.25,1],[0,1],[0,0.75],[0,0.5],[0,0.25]];outlineConnect=0;gradientColor=none;html=1;whiteSpace=wrap;fontSize=12;fontStyle=0;container=1;pointerEvents=0;collapsible=0;recursiveResize=0;shape=mxgraph.aws4.groupCenter;grIcon=mxgraph.aws4.group_auto_scaling_group;grStroke=1;strokeColor=#CCCC00;fillColor=none;verticalAlign=top;align=center;fontColor=#CCCC00;dashed=1;spacingTop=25;" parent="6uiXnNB2Hfb9xtFHbngv-1" vertex="1">
          <mxGeometry x="130" y="280" width="380" height="110" as="geometry" />
        </mxCell>
        <mxCell id="owAeYgM3tqPIYLvSeJij-57" value="" style="group;dashed=1;strokeColor=#0000FF;" parent="zvB8l6THBs-L_ArTR7B3-4" vertex="1" connectable="0">
          <mxGeometry x="295" y="-12" width="70" height="50" as="geometry" />
        </mxCell>
        <mxCell id="owAeYgM3tqPIYLvSeJij-58" value="mount target" style="outlineConnect=0;html=1;whiteSpace=wrap;fontSize=12;fontStyle=0;strokeColor=#432D57;fillColor=#99CCFF;verticalAlign=top;align=center;dashed=1;spacingTop=0;container=0;fontColor=#0066CC;opacity=30;" parent="owAeYgM3tqPIYLvSeJij-57" vertex="1">
          <mxGeometry width="70" height="50" as="geometry" />
        </mxCell>
        <UserObject label="" tooltip="Elastic Network Interface (ENI)" id="owAeYgM3tqPIYLvSeJij-59">
          <mxCell style="outlineConnect=0;dashed=0;verticalLabelPosition=bottom;verticalAlign=top;align=center;html=1;shape=mxgraph.aws4.elastic_network_interface;fillColor=#8C4FFF;gradientColor=none;sketch=0;fontColor=#232F3E;strokeColor=none;fontStyle=0;aspect=fixed;resIcon=mxgraph.aws4.elastic_network_interface;pointerEvents=1;" parent="owAeYgM3tqPIYLvSeJij-57" vertex="1">
            <mxGeometry x="20" y="21.43" width="22.46" height="23.44" as="geometry" />
          </mxCell>
        </UserObject>
        <mxCell id="owAeYgM3tqPIYLvSeJij-56" value="" style="group;dashed=1;strokeColor=#0000FF;" parent="zvB8l6THBs-L_ArTR7B3-4" vertex="1" connectable="0">
          <mxGeometry x="20" y="-15" width="70" height="50" as="geometry" />
        </mxCell>
        <mxCell id="owAeYgM3tqPIYLvSeJij-54" value="mount target" style="outlineConnect=0;html=1;whiteSpace=wrap;fontSize=12;fontStyle=0;strokeColor=#432D57;fillColor=#99CCFF;verticalAlign=top;align=center;dashed=1;spacingTop=0;container=0;fontColor=#0066CC;opacity=30;" parent="owAeYgM3tqPIYLvSeJij-56" vertex="1">
          <mxGeometry width="70" height="50" as="geometry" />
        </mxCell>
        <UserObject label="" tooltip="Elastic Network Interface (ENI)" id="owAeYgM3tqPIYLvSeJij-55">
          <mxCell style="outlineConnect=0;dashed=0;verticalLabelPosition=bottom;verticalAlign=top;align=center;html=1;shape=mxgraph.aws4.elastic_network_interface;fillColor=#8C4FFF;gradientColor=none;sketch=0;fontColor=#232F3E;strokeColor=none;fontStyle=0;aspect=fixed;resIcon=mxgraph.aws4.elastic_network_interface;pointerEvents=1;" parent="owAeYgM3tqPIYLvSeJij-56" vertex="1">
            <mxGeometry x="20" y="21.43" width="22.46" height="23.44" as="geometry" />
          </mxCell>
        </UserObject>
        <mxCell id="5CiNweM-sX3QMw82ZduV-32" value="us-east-1c" style="fillColor=none;strokeColor=#147EBA;dashed=1;verticalAlign=top;fontStyle=0;fontColor=#147EBA;whiteSpace=wrap;html=1;spacingTop=0;" parent="6uiXnNB2Hfb9xtFHbngv-1" vertex="1">
          <mxGeometry x="680" y="80" width="240" height="480" as="geometry" />
        </mxCell>
        <mxCell id="9mONx7Qn97t1CiRnEvUv-13" value="" style="group;fontColor=light-dark(default, #647687);" parent="6uiXnNB2Hfb9xtFHbngv-1" vertex="1" connectable="0">
          <mxGeometry x="720" y="110" width="160" height="100" as="geometry" />
        </mxCell>
        <mxCell id="5CiNweM-sX3QMw82ZduV-27" value="Public subnet" style="points=[[0,0],[0.25,0],[0.5,0],[0.75,0],[1,0],[1,0.25],[1,0.5],[1,0.75],[1,1],[0.75,1],[0.5,1],[0.25,1],[0,1],[0,0.75],[0,0.5],[0,0.25]];outlineConnect=0;html=1;whiteSpace=wrap;fontSize=12;fontStyle=0;container=0;pointerEvents=0;collapsible=0;recursiveResize=0;shape=mxgraph.aws4.group;grIcon=mxgraph.aws4.group_security_group;grStroke=0;strokeColor=#314354;fillColor=#647687;verticalAlign=top;align=left;spacingLeft=30;dashed=0;fontColor=#ffffff;movable=1;resizable=1;rotatable=1;deletable=1;editable=1;locked=0;connectable=1;" parent="9mONx7Qn97t1CiRnEvUv-13" vertex="1">
          <mxGeometry width="160" height="100" as="geometry" />
        </mxCell>
        <mxCell id="TDfjeNT3tWewx6dYdx5n-31" value="Bastion-host-SG" style="fontStyle=0;verticalAlign=top;align=center;spacingTop=-2;fillColor=none;rounded=0;whiteSpace=wrap;html=1;strokeColor=#0000FF;strokeWidth=1;container=1;collapsible=0;expand=0;recursiveResize=0;fontColor=#0000FF;movable=1;resizable=1;rotatable=1;deletable=1;editable=1;locked=0;connectable=1;" parent="9mONx7Qn97t1CiRnEvUv-13" vertex="1">
          <mxGeometry x="30" y="30.139999999999986" width="100" height="62.86" as="geometry" />
        </mxCell>
        <UserObject label="" tooltip="Bastion Host" id="p0Qm7JYq2Yo7alohfEiD-1">
          <mxCell style="points=[];aspect=fixed;html=1;align=center;shadow=0;dashed=0;fillColor=light-dark(#FFB366,#CCFF99);strokeColor=none;shape=mxgraph.alibaba_cloud.bastionhost;container=0;movable=1;resizable=1;rotatable=1;deletable=1;editable=1;locked=0;connectable=1;fontColor=#CCFF99;" parent="TDfjeNT3tWewx6dYdx5n-31" vertex="1">
            <mxGeometry x="30" y="23.610000000000042" width="43.46" height="34.41" as="geometry" />
          </mxCell>
        </UserObject>
        <mxCell id="5CiNweM-sX3QMw82ZduV-31" value="Private subnet" style="points=[[0,0],[0.25,0],[0.5,0],[0.75,0],[1,0],[1,0.25],[1,0.5],[1,0.75],[1,1],[0.75,1],[0.5,1],[0.25,1],[0,1],[0,0.75],[0,0.5],[0,0.25]];outlineConnect=0;html=1;whiteSpace=wrap;fontSize=12;fontStyle=0;container=0;pointerEvents=0;collapsible=0;recursiveResize=0;shape=mxgraph.aws4.group;grIcon=mxgraph.aws4.group_security_group;grStroke=0;strokeColor=#432D57;fillColor=#76608a;verticalAlign=top;align=left;spacingLeft=30;dashed=0;fontColor=#ffffff;" parent="6uiXnNB2Hfb9xtFHbngv-1" vertex="1">
          <mxGeometry x="720" y="430" width="160" height="100" as="geometry" />
        </mxCell>
        <mxCell id="5CiNweM-sX3QMw82ZduV-30" value="Private subnet" style="points=[[0,0],[0.25,0],[0.5,0],[0.75,0],[1,0],[1,0.25],[1,0.5],[1,0.75],[1,1],[0.75,1],[0.5,1],[0.25,1],[0,1],[0,0.75],[0,0.5],[0,0.25]];outlineConnect=0;html=1;whiteSpace=wrap;fontSize=12;fontStyle=0;container=0;pointerEvents=0;collapsible=0;recursiveResize=0;shape=mxgraph.aws4.group;grIcon=mxgraph.aws4.group_security_group;grStroke=0;strokeColor=#432D57;fillColor=#76608a;verticalAlign=top;align=left;spacingLeft=30;dashed=0;fontColor=#ffffff;movable=1;resizable=1;rotatable=1;deletable=1;editable=1;locked=0;connectable=1;" parent="6uiXnNB2Hfb9xtFHbngv-1" vertex="1">
          <mxGeometry x="720" y="230" width="160" height="180" as="geometry" />
        </mxCell>
        <mxCell id="owAeYgM3tqPIYLvSeJij-4" value="" style="group" parent="6uiXnNB2Hfb9xtFHbngv-1" vertex="1" connectable="0">
          <mxGeometry x="270" y="118" width="100" height="70" as="geometry" />
        </mxCell>
        <mxCell id="TDfjeNT3tWewx6dYdx5n-28" value="ALB-SG" style="fontStyle=0;verticalAlign=top;align=center;spacingTop=-2;fillColor=none;rounded=0;whiteSpace=wrap;html=1;strokeColor=#0000FF;strokeWidth=1;container=0;collapsible=0;expand=0;recursiveResize=0;fontColor=#0000FF;" parent="owAeYgM3tqPIYLvSeJij-4" vertex="1">
          <mxGeometry width="100" height="70" as="geometry" />
        </mxCell>
        <UserObject label="" tooltip="Elastic Load Balancer" id="9mONx7Qn97t1CiRnEvUv-3">
          <mxCell style="sketch=0;outlineConnect=0;fontColor=#232F3E;gradientColor=none;fillColor=#F58534;strokeColor=#ffffff;dashed=0;verticalLabelPosition=bottom;verticalAlign=top;align=center;html=1;fontSize=10;fontStyle=1;aspect=fixed;pointerEvents=1;shape=mxgraph.aws3.application_load_balancer;whiteSpace=wrap;spacing=3;prIcon=mxgraph.aws4.application_load_balancer;direction=south;" parent="owAeYgM3tqPIYLvSeJij-4" vertex="1">
            <mxGeometry x="31.5" y="23" width="37" height="37" as="geometry" />
          </mxCell>
        </UserObject>
        <mxCell id="6uiXnNB2Hfb9xtFHbngv-34" style="edgeStyle=orthogonalEdgeStyle;rounded=0;orthogonalLoop=1;jettySize=auto;html=1;flowAnimation=1;" parent="6uiXnNB2Hfb9xtFHbngv-1" source="TDfjeNT3tWewx6dYdx5n-32" target="5CiNweM-sX3QMw82ZduV-5" edge="1">
          <mxGeometry relative="1" as="geometry">
            <Array as="points">
              <mxPoint x="60" y="490" />
              <mxPoint x="60" y="171" />
            </Array>
          </mxGeometry>
        </mxCell>
        <mxCell id="6uiXnNB2Hfb9xtFHbngv-18" style="edgeStyle=orthogonalEdgeStyle;rounded=0;orthogonalLoop=1;jettySize=auto;html=1;flowAnimation=1;" parent="6uiXnNB2Hfb9xtFHbngv-1" source="zvB8l6THBs-L_ArTR7B3-2" target="5CiNweM-sX3QMw82ZduV-5" edge="1">
          <mxGeometry relative="1" as="geometry" />
        </mxCell>
        <mxCell id="6uiXnNB2Hfb9xtFHbngv-6" style="edgeStyle=orthogonalEdgeStyle;rounded=0;orthogonalLoop=1;jettySize=auto;html=1;flowAnimation=1;" parent="6uiXnNB2Hfb9xtFHbngv-1" source="TDfjeNT3tWewx6dYdx5n-28" target="_eAZpja_ApV_2CZ94UeD-1" edge="1">
          <mxGeometry relative="1" as="geometry">
            <Array as="points">
              <mxPoint x="320" y="180" />
            </Array>
          </mxGeometry>
        </mxCell>
        <mxCell id="6uiXnNB2Hfb9xtFHbngv-11" value=":8080" style="edgeLabel;html=1;align=center;verticalAlign=middle;resizable=0;points=[];fontSize=15;" parent="6uiXnNB2Hfb9xtFHbngv-6" vertex="1" connectable="0">
          <mxGeometry x="0.3627" y="-1" relative="1" as="geometry">
            <mxPoint x="1" y="-21" as="offset" />
          </mxGeometry>
        </mxCell>
        <UserObject label="" tooltip="" id="owAeYgM3tqPIYLvSeJij-5">
          <mxCell style="edgeStyle=orthogonalEdgeStyle;rounded=0;orthogonalLoop=1;jettySize=auto;html=1;flowAnimation=1;" parent="6uiXnNB2Hfb9xtFHbngv-1" source="9mONx7Qn97t1CiRnEvUv-23" target="owAeYgM3tqPIYLvSeJij-3" edge="1">
            <mxGeometry relative="1" as="geometry">
              <mxPoint x="470" y="490" as="targetPoint" />
              <Array as="points">
                <mxPoint x="400" y="496" />
                <mxPoint x="400" y="496" />
              </Array>
            </mxGeometry>
          </mxCell>
        </UserObject>
        <mxCell id="owAeYgM3tqPIYLvSeJij-6" value="Synchronous replication" style="edgeLabel;html=1;align=center;verticalAlign=middle;resizable=0;points=[];" parent="owAeYgM3tqPIYLvSeJij-5" vertex="1" connectable="0">
          <mxGeometry x="-0.3643" relative="1" as="geometry">
            <mxPoint x="44" y="12" as="offset" />
          </mxGeometry>
        </mxCell>
        <mxCell id="6uiXnNB2Hfb9xtFHbngv-33" style="edgeStyle=orthogonalEdgeStyle;rounded=0;orthogonalLoop=1;jettySize=auto;html=1;flowAnimation=1;" parent="6uiXnNB2Hfb9xtFHbngv-1" source="TDfjeNT3tWewx6dYdx5n-30" target="TDfjeNT3tWewx6dYdx5n-32" edge="1">
          <mxGeometry relative="1" as="geometry">
            <Array as="points">
              <mxPoint x="320" y="478" />
            </Array>
          </mxGeometry>
        </mxCell>
        <mxCell id="6uiXnNB2Hfb9xtFHbngv-19" style="edgeStyle=orthogonalEdgeStyle;rounded=0;orthogonalLoop=1;jettySize=auto;html=1;flowAnimation=1;" parent="6uiXnNB2Hfb9xtFHbngv-1" source="zvB8l6THBs-L_ArTR7B3-3" target="5CiNweM-sX3QMw82ZduV-21" edge="1">
          <mxGeometry relative="1" as="geometry">
            <Array as="points">
              <mxPoint x="450" y="171" />
            </Array>
          </mxGeometry>
        </mxCell>
        <mxCell id="6uiXnNB2Hfb9xtFHbngv-14" style="edgeStyle=orthogonalEdgeStyle;rounded=0;orthogonalLoop=1;jettySize=auto;html=1;flowAnimation=1;" parent="6uiXnNB2Hfb9xtFHbngv-1" source="TDfjeNT3tWewx6dYdx5n-31" target="TDfjeNT3tWewx6dYdx5n-30" edge="1">
          <mxGeometry relative="1" as="geometry">
            <Array as="points">
              <mxPoint x="640" y="172" />
              <mxPoint x="640" y="360" />
            </Array>
          </mxGeometry>
        </mxCell>
        <mxCell id="6uiXnNB2Hfb9xtFHbngv-15" value=":22" style="edgeLabel;html=1;align=center;verticalAlign=middle;resizable=0;points=[];fontSize=15;" parent="6uiXnNB2Hfb9xtFHbngv-14" vertex="1" connectable="0">
          <mxGeometry x="-0.0318" relative="1" as="geometry">
            <mxPoint as="offset" />
          </mxGeometry>
        </mxCell>
        <mxCell id="owAeYgM3tqPIYLvSeJij-61" style="edgeStyle=orthogonalEdgeStyle;rounded=0;orthogonalLoop=1;jettySize=auto;html=1;endArrow=none;endFill=1;startArrow=none;startFill=0;strokeColor=#B8B8B8;" parent="6uiXnNB2Hfb9xtFHbngv-1" source="zvB8l6THBs-L_ArTR7B3-2" target="owAeYgM3tqPIYLvSeJij-54" edge="1">
          <mxGeometry relative="1" as="geometry">
            <Array as="points">
              <mxPoint x="185" y="338" />
              <mxPoint x="185" y="338" />
            </Array>
          </mxGeometry>
        </mxCell>
        <mxCell id="owAeYgM3tqPIYLvSeJij-62" style="edgeStyle=orthogonalEdgeStyle;rounded=0;orthogonalLoop=1;jettySize=auto;html=1;endArrow=none;endFill=1;startArrow=none;startFill=0;strokeColor=#B8B8B8;" parent="6uiXnNB2Hfb9xtFHbngv-1" source="zvB8l6THBs-L_ArTR7B3-3" target="owAeYgM3tqPIYLvSeJij-58" edge="1">
          <mxGeometry relative="1" as="geometry">
            <Array as="points">
              <mxPoint x="460" y="328" />
              <mxPoint x="460" y="328" />
            </Array>
          </mxGeometry>
        </mxCell>
        <UserObject label="" tooltip="Internet Gateway" id="TDfjeNT3tWewx6dYdx5n-4">
          <mxCell style="sketch=0;outlineConnect=0;fontColor=#232F3E;gradientColor=none;fillColor=#6666FF;strokeColor=none;dashed=0;verticalLabelPosition=bottom;verticalAlign=top;align=center;html=1;fontSize=12;fontStyle=0;aspect=fixed;pointerEvents=1;shape=mxgraph.aws4.internet_gateway;labelBackgroundColor=none;textOpacity=50;fillStyle=solid;container=0;" parent="6uiXnNB2Hfb9xtFHbngv-2" vertex="1">
            <mxGeometry x="290" width="60" height="60" as="geometry" />
          </mxCell>
        </UserObject>
        <UserObject label="" tooltip="VPC Gateway Endpoint" id="owAeYgM3tqPIYLvSeJij-34">
          <mxCell style="aspect=fixed;html=1;align=center;shadow=0;dashed=0;fillColor=#a0522d;strokeColor=#6D1F00;shape=mxgraph.aws3.endpoints;outlineConnect=0;verticalLabelPosition=bottom;verticalAlign=top;sketch=0;fontStyle=0;pointerEvents=1;gradientDirection=north;resIcon=mxgraph.aws4.endpoints;fontColor=#ffffff;" parent="6uiXnNB2Hfb9xtFHbngv-2" vertex="1">
            <mxGeometry x="-30" y="358" width="54.900000000000006" height="54.900000000000006" as="geometry" />
          </mxCell>
        </UserObject>
        <mxCell id="owAeYgM3tqPIYLvSeJij-49" value="" style="edgeStyle=orthogonalEdgeStyle;rounded=0;orthogonalLoop=1;jettySize=auto;html=1;flowAnimation=1;" parent="6uiXnNB2Hfb9xtFHbngv-2" source="TDfjeNT3tWewx6dYdx5n-30" target="owAeYgM3tqPIYLvSeJij-34" edge="1">
          <mxGeometry relative="1" as="geometry">
            <mxPoint x="550" y="777" as="sourcePoint" />
            <mxPoint x="360" y="897" as="targetPoint" />
          </mxGeometry>
        </mxCell>
        <mxCell id="6uiXnNB2Hfb9xtFHbngv-5" style="edgeStyle=orthogonalEdgeStyle;rounded=0;orthogonalLoop=1;jettySize=auto;html=1;flowAnimation=1;fontSize=11;" parent="6uiXnNB2Hfb9xtFHbngv-2" source="TDfjeNT3tWewx6dYdx5n-4" target="TDfjeNT3tWewx6dYdx5n-28" edge="1">
          <mxGeometry relative="1" as="geometry">
            <Array as="points">
              <mxPoint x="320" y="200" />
            </Array>
          </mxGeometry>
        </mxCell>
        <mxCell id="6uiXnNB2Hfb9xtFHbngv-12" value=":80" style="edgeLabel;html=1;align=center;verticalAlign=middle;resizable=0;points=[];fontSize=15;" parent="6uiXnNB2Hfb9xtFHbngv-5" vertex="1" connectable="0">
          <mxGeometry x="-0.3893" relative="1" as="geometry">
            <mxPoint y="19" as="offset" />
          </mxGeometry>
        </mxCell>
        <mxCell id="6uiXnNB2Hfb9xtFHbngv-13" value=":443" style="edgeLabel;html=1;align=center;verticalAlign=middle;resizable=0;points=[];fontSize=15;" parent="6uiXnNB2Hfb9xtFHbngv-5" vertex="1" connectable="0">
          <mxGeometry x="-0.6023" y="1" relative="1" as="geometry">
            <mxPoint y="9" as="offset" />
          </mxGeometry>
        </mxCell>
        <UserObject label="" tooltip="CloudWatch" id="owAeYgM3tqPIYLvSeJij-9">
          <mxCell style="sketch=0;points=[[0,0,0],[0.25,0,0],[0.5,0,0],[0.75,0,0],[1,0,0],[0,1,0],[0.25,1,0],[0.5,1,0],[0.75,1,0],[1,1,0],[0,0.25,0],[0,0.5,0],[0,0.75,0],[1,0.25,0],[1,0.5,0],[1,0.75,0]];points=[[0,0,0],[0.25,0,0],[0.5,0,0],[0.75,0,0],[1,0,0],[0,1,0],[0.25,1,0],[0.5,1,0],[0.75,1,0],[1,1,0],[0,0.25,0],[0,0.5,0],[0,0.75,0],[1,0.25,0],[1,0.5,0],[1,0.75,0]];outlineConnect=0;fontColor=#232F3E;fillColor=#E7157B;strokeColor=#ffffff;dashed=0;verticalLabelPosition=bottom;verticalAlign=top;align=center;html=1;fontSize=12;fontStyle=0;aspect=fixed;shape=mxgraph.aws4.resourceIcon;resIcon=mxgraph.aws4.cloudwatch_2;" parent="ao3atlO_gpHJTrCSkDzS-1" vertex="1">
            <mxGeometry x="250" y="10" width="60" height="60" as="geometry" />
          </mxCell>
        </UserObject>
        <mxCell id="owAeYgM3tqPIYLvSeJij-15" style="edgeStyle=orthogonalEdgeStyle;rounded=0;orthogonalLoop=1;jettySize=auto;html=1;flowAnimation=1;" parent="ao3atlO_gpHJTrCSkDzS-1" source="owAeYgM3tqPIYLvSeJij-9" target="TDfjeNT3tWewx6dYdx5n-3" edge="1">
          <mxGeometry relative="1" as="geometry">
            <Array as="points">
              <mxPoint x="170" y="40" />
            </Array>
          </mxGeometry>
        </mxCell>
        <UserObject label="" tooltip="S3 Bucket" id="owAeYgM3tqPIYLvSeJij-29">
          <mxCell style="sketch=0;points=[[0,0,0],[0.25,0,0],[0.5,0,0],[0.75,0,0],[1,0,0],[0,1,0],[0.25,1,0],[0.5,1,0],[0.75,1,0],[1,1,0],[0,0.25,0],[0,0.5,0],[0,0.75,0],[1,0.25,0],[1,0.5,0],[1,0.75,0]];outlineConnect=0;fontColor=#232F3E;fillColor=#7AA116;strokeColor=#ffffff;dashed=0;verticalLabelPosition=bottom;verticalAlign=top;align=center;html=1;fontSize=12;fontStyle=0;aspect=fixed;shape=mxgraph.aws4.resourceIcon;resIcon=mxgraph.aws4.s3;" parent="ao3atlO_gpHJTrCSkDzS-1" vertex="1">
            <mxGeometry x="15" y="268" width="60" height="60" as="geometry" />
          </mxCell>
        </UserObject>
        <mxCell id="owAeYgM3tqPIYLvSeJij-37" style="edgeStyle=orthogonalEdgeStyle;rounded=0;orthogonalLoop=1;jettySize=auto;html=1;flowAnimation=1;" parent="ao3atlO_gpHJTrCSkDzS-1" source="owAeYgM3tqPIYLvSeJij-34" target="owAeYgM3tqPIYLvSeJij-29" edge="1">
          <mxGeometry relative="1" as="geometry">
            <Array as="points">
              <mxPoint x="40" y="435" />
            </Array>
          </mxGeometry>
        </mxCell>
        <UserObject label="" tooltip="SNS" id="owAeYgM3tqPIYLvSeJij-10">
          <mxCell style="sketch=0;points=[[0,0,0],[0.25,0,0],[0.5,0,0],[0.75,0,0],[1,0,0],[0,1,0],[0.25,1,0],[0.5,1,0],[0.75,1,0],[1,1,0],[0,0.25,0],[0,0.5,0],[0,0.75,0],[1,0.25,0],[1,0.5,0],[1,0.75,0]];outlineConnect=0;fontColor=#232F3E;fillColor=#E7157B;strokeColor=#ffffff;dashed=0;verticalLabelPosition=bottom;verticalAlign=top;align=center;html=1;fontSize=12;fontStyle=0;aspect=fixed;shape=mxgraph.aws4.resourceIcon;resIcon=mxgraph.aws4.sns;" parent="ao3atlO_gpHJTrCSkDzS-1" vertex="1">
            <mxGeometry x="590" y="10" width="60" height="60" as="geometry" />
          </mxCell>
        </UserObject>
        <mxCell id="owAeYgM3tqPIYLvSeJij-53" style="edgeStyle=orthogonalEdgeStyle;rounded=0;orthogonalLoop=1;jettySize=auto;html=1;flowAnimation=1;" parent="ao3atlO_gpHJTrCSkDzS-1" source="TDfjeNT3tWewx6dYdx5n-30" target="owAeYgM3tqPIYLvSeJij-10" edge="1">
          <mxGeometry relative="1" as="geometry">
            <Array as="points">
              <mxPoint x="420" y="40" />
            </Array>
          </mxGeometry>
        </mxCell>
        <UserObject label="" tooltip="EFS" id="owAeYgM3tqPIYLvSeJij-60">
          <mxCell style="sketch=0;points=[[0,0,0],[0.25,0,0],[0.5,0,0],[0.75,0,0],[1,0,0],[0,1,0],[0.25,1,0],[0.5,1,0],[0.75,1,0],[1,1,0],[0,0.25,0],[0,0.5,0],[0,0.75,0],[1,0.25,0],[1,0.5,0],[1,0.75,0]];outlineConnect=0;fontColor=#232F3E;fillColor=#7AA116;strokeColor=#ffffff;dashed=0;verticalLabelPosition=bottom;verticalAlign=top;align=center;html=1;fontSize=12;fontStyle=0;aspect=fixed;shape=mxgraph.aws4.resourceIcon;resIcon=mxgraph.aws4.elastic_file_system;" parent="ao3atlO_gpHJTrCSkDzS-1" vertex="1">
            <mxGeometry x="14" y="108" width="62" height="62" as="geometry" />
          </mxCell>
        </UserObject>
        <mxCell id="owAeYgM3tqPIYLvSeJij-63" style="edgeStyle=orthogonalEdgeStyle;rounded=0;orthogonalLoop=1;jettySize=auto;html=1;strokeColor=#B8B8B8;startArrow=none;startFill=0;endArrow=none;endFill=1;" parent="ao3atlO_gpHJTrCSkDzS-1" source="owAeYgM3tqPIYLvSeJij-54" target="owAeYgM3tqPIYLvSeJij-60" edge="1">
          <mxGeometry relative="1" as="geometry">
            <Array as="points">
              <mxPoint x="200" y="378" />
              <mxPoint x="200" y="139" />
            </Array>
          </mxGeometry>
        </mxCell>
        <mxCell id="owAeYgM3tqPIYLvSeJij-64" style="edgeStyle=orthogonalEdgeStyle;rounded=0;orthogonalLoop=1;jettySize=auto;html=1;strokeColor=#B8B8B8;startArrow=none;startFill=0;endArrow=none;endFill=1;" parent="ao3atlO_gpHJTrCSkDzS-1" source="owAeYgM3tqPIYLvSeJij-58" target="owAeYgM3tqPIYLvSeJij-60" edge="1">
          <mxGeometry relative="1" as="geometry">
            <Array as="points">
              <mxPoint x="490" y="373" />
              <mxPoint x="490" y="139" />
            </Array>
          </mxGeometry>
        </mxCell>
        <mxCell id="6uiXnNB2Hfb9xtFHbngv-4" style="edgeStyle=orthogonalEdgeStyle;rounded=0;orthogonalLoop=1;jettySize=auto;html=1;flowAnimation=1;" parent="kCHVRqanEo-mkhX_574u-2" source="9mONx7Qn97t1CiRnEvUv-19" target="TDfjeNT3tWewx6dYdx5n-4" edge="1">
          <mxGeometry relative="1" as="geometry" />
        </mxCell>
        <UserObject label="" tooltip="Internet" id="9mONx7Qn97t1CiRnEvUv-19">
          <mxCell style="outlineConnect=0;dashed=0;verticalLabelPosition=bottom;verticalAlign=top;align=center;html=1;shape=mxgraph.aws3.internet_3;fillColor=#4E4E4E;gradientColor=none;strokeColor=#747474;" parent="kCHVRqanEo-mkhX_574u-2" vertex="1">
            <mxGeometry x="560" y="145.75" width="79.5" height="54" as="geometry" />
          </mxCell>
        </UserObject>
        <mxCell id="6uiXnNB2Hfb9xtFHbngv-3" style="edgeStyle=orthogonalEdgeStyle;rounded=0;orthogonalLoop=1;jettySize=auto;html=1;flowAnimation=1;strokeWidth=1;" parent="kCHVRqanEo-mkhX_574u-2" source="owAeYgM3tqPIYLvSeJij-26" target="9mONx7Qn97t1CiRnEvUv-19" edge="1">
          <mxGeometry relative="1" as="geometry">
            <Array as="points">
              <mxPoint x="540" y="163.75" />
              <mxPoint x="540" y="163.75" />
            </Array>
          </mxGeometry>
        </mxCell>
        <mxCell id="9mONx7Qn97t1CiRnEvUv-21" value="users" style="sketch=0;outlineConnect=0;gradientColor=none;fontColor=#545B64;strokeColor=none;fillColor=#879196;dashed=0;verticalLabelPosition=bottom;verticalAlign=top;align=center;html=1;fontSize=12;fontStyle=0;aspect=fixed;shape=mxgraph.aws4.illustration_users;pointerEvents=1" parent="kCHVRqanEo-mkhX_574u-2" vertex="1">
          <mxGeometry x="218" y="133.75" width="58" height="58" as="geometry" />
        </mxCell>
        <UserObject label="&#xa;&lt;span style=&quot;color: rgb(232, 62, 140); font-family: SFMono-Regular, Menlo, Monaco, Consolas, &amp;quot;Liberation Mono&amp;quot;, &amp;quot;Courier New&amp;quot;, monospace; font-size: 11.2px; font-style: normal; font-variant-ligatures: normal; font-variant-caps: normal; font-weight: 400; letter-spacing: normal; orphans: 2; text-align: left; text-indent: 0px; text-transform: none; widows: 2; word-spacing: 0px; -webkit-text-stroke-width: 0px; white-space: normal; text-decoration-thickness: initial; text-decoration-style: initial; text-decoration-color: initial; float: none; display: inline !important;&quot;&gt;jkdhhjfhjfhf.com&lt;/span&gt;&#xa;&#xa;" link="&#xa;&lt;span style=&quot;color: rgb(232, 62, 140); font-family: SFMono-Regular, Menlo, Monaco, Consolas, &amp;quot;Liberation Mono&amp;quot;, &amp;quot;Courier New&amp;quot;, monospace; font-size: 11.2px; font-style: normal; font-variant-ligatures: normal; font-variant-caps: normal; font-weight: 400; letter-spacing: normal; orphans: 2; text-align: left; text-indent: 0px; text-transform: none; widows: 2; word-spacing: 0px; -webkit-text-stroke-width: 0px; white-space: normal; background-color: rgb(27, 35, 45); text-decoration-thickness: initial; text-decoration-style: initial; text-decoration-color: initial; display: inline !important; float: none;&quot;&gt;jkdhhjfhjfhf.com&lt;/span&gt;&#xa;&#xa;" id="owAeYgM3tqPIYLvSeJij-28">
          <mxCell style="edgeStyle=orthogonalEdgeStyle;rounded=0;orthogonalLoop=1;jettySize=auto;html=1;flowAnimation=1;strokeWidth=1;labelBackgroundColor=none;" parent="kCHVRqanEo-mkhX_574u-2" source="9mONx7Qn97t1CiRnEvUv-21" target="owAeYgM3tqPIYLvSeJij-26" edge="1">
            <mxGeometry x="-0.0002" y="-9" relative="1" as="geometry">
              <mxPoint x="618" y="252.75" as="sourcePoint" />
              <mxPoint x="760" y="252.75" as="targetPoint" />
              <mxPoint y="-18" as="offset" />
            </mxGeometry>
          </mxCell>
        </UserObject>
        <UserObject label="" tooltip="Route 53" id="owAeYgM3tqPIYLvSeJij-26">
          <mxCell style="outlineConnect=0;dashed=0;verticalLabelPosition=bottom;verticalAlign=top;align=center;html=1;shape=mxgraph.aws3.route_53;fillColor=#F58536;gradientColor=none;" parent="kCHVRqanEo-mkhX_574u-2" vertex="1">
            <mxGeometry x="410" y="120" width="70.5" height="85.5" as="geometry" />
          </mxCell>
        </UserObject>
        <mxCell id="owAeYgM3tqPIYLvSeJij-47" value="My IP" style="text;html=1;align=center;verticalAlign=middle;whiteSpace=wrap;rounded=0;fontSize=16;fontStyle=1" parent="kCHVRqanEo-mkhX_574u-2" vertex="1">
          <mxGeometry x="1045" y="153.75" width="50" height="30" as="geometry" />
        </mxCell>
        <mxCell id="owAeYgM3tqPIYLvSeJij-46" value=":22" style="edgeStyle=orthogonalEdgeStyle;html=1;endArrow=block;elbow=vertical;startArrow=none;endFill=1;strokeColor=#FFFFFF;rounded=0;flowAnimation=1;fontSize=15;" parent="kCHVRqanEo-mkhX_574u-2" source="owAeYgM3tqPIYLvSeJij-47" target="TDfjeNT3tWewx6dYdx5n-31" edge="1">
          <mxGeometry x="0.5813" y="-10" width="100" relative="1" as="geometry">
            <mxPoint x="1080" y="383.75" as="sourcePoint" />
            <mxPoint x="1100" y="383.75" as="targetPoint" />
            <Array as="points">
              <mxPoint x="610" y="168.75" />
              <mxPoint x="610" y="423.75" />
              <mxPoint x="1080" y="423.75" />
            </Array>
            <mxPoint as="offset" />
          </mxGeometry>
        </mxCell>
      </root>
    </mxGraphModel>
  </diagram>
</mxfile>
